<?xml version="1.0" standalone="no"?>
<!DOCTYPE svg PUBLIC "-//W3C//DTD SVG 20010904//EN"
 "http://www.w3.org/TR/2001/REC-SVG-20010904/DTD/svg10.dtd">
<svg version="1.0" xmlns="http://www.w3.org/2000/svg"
 width="351.000000pt" height="351.000000pt" viewBox="0 0 351.000000 351.000000"
 preserveAspectRatio="xMidYMid meet">
<metadata>
Created by potrace 1.11, written by Peter Selinger 2001-2013
</metadata>
<g transform="translate(0.000000,351.000000) scale(0.100000,-0.100000)"
fill="#000000" stroke="none">
<path d="M1545 3430 c-3 -6 -11 -8 -16 -5 -5 4 -9 2 -9 -2 0 -5 -16 -7 -35 -5
-19 2 -42 -1 -50 -8 -8 -7 -21 -10 -29 -7 -8 3 -17 3 -21 -1 -5 -6 -23 -9 -77
-15 -10 0 -18 -5 -18 -10 0 -4 -4 -6 -9 -3 -5 3 -27 -1 -50 -9 -23 -8 -41 -11
-41 -7 0 4 -4 1 -9 -6 -4 -7 -14 -15 -22 -16 -42 -8 -69 -19 -69 -28 0 -6 -7
-8 -15 -4 -8 3 -15 2 -15 -3 0 -7 -27 -20 -52 -25 -4 0 -17 -9 -28 -18 -11
-10 -27 -18 -35 -18 -19 0 -56 -31 -49 -42 3 -4 -2 -5 -11 -2 -9 4 -25 -2 -35
-11 -11 -10 -20 -14 -20 -10 0 4 -11 -4 -24 -18 -13 -14 -27 -23 -30 -20 -3 4
-6 1 -6 -5 0 -7 -7 -12 -15 -12 -8 0 -15 -7 -15 -16 0 -8 -4 -13 -8 -10 -5 3
-18 -4 -30 -14 -12 -11 -26 -20 -32 -20 -6 0 -8 -4 -5 -10 3 -5 2 -10 -3 -10
-16 0 -81 -67 -74 -75 4 -5 -1 -5 -10 -2 -10 4 -18 2 -18 -2 0 -5 -28 -38 -63
-74 -35 -35 -61 -70 -59 -77 3 -7 0 -10 -7 -6 -6 4 -11 2 -11 -5 0 -6 -10 -20
-22 -30 -11 -11 -17 -19 -12 -19 5 0 0 -7 -10 -15 -11 -8 -17 -15 -13 -15 4 0
-1 -10 -13 -22 -11 -12 -20 -27 -20 -33 0 -7 -9 -20 -20 -30 -12 -10 -18 -25
-15 -32 3 -9 0 -11 -7 -7 -7 5 -9 2 -5 -9 4 -10 -1 -18 -13 -22 -12 -4 -17
-13 -15 -25 2 -11 0 -20 -5 -20 -5 0 -12 -11 -16 -25 -3 -13 -12 -29 -20 -36
-8 -6 -11 -15 -8 -20 3 -5 1 -9 -5 -9 -6 0 -8 -6 -5 -14 3 -8 -2 -25 -10 -38
-9 -14 -13 -28 -9 -31 3 -4 0 -7 -7 -7 -7 0 -10 -3 -7 -6 3 -4 2 -15 -4 -26
-6 -11 -13 -29 -15 -41 -7 -30 -10 -39 -18 -59 -4 -9 -5 -22 -1 -28 3 -5 1
-10 -5 -10 -6 0 -8 -5 -5 -10 4 -6 -1 -22 -9 -35 -9 -14 -13 -25 -9 -25 5 0 8
-11 8 -24 0 -13 -3 -22 -7 -19 -5 2 -8 -9 -8 -24 0 -16 -5 -34 -12 -41 -9 -9
-9 -12 0 -12 10 0 10 -5 2 -20 -7 -13 -7 -20 -1 -20 7 0 7 -9 1 -26 -13 -33
-13 -37 3 -28 9 6 9 5 0 -7 -7 -9 -11 -44 -10 -92 1 -42 -2 -77 -7 -77 -5 0
-4 -6 1 -12 13 -17 25 -50 15 -44 -8 5 -8 -97 1 -111 3 -5 7 -26 9 -46 1 -21
5 -37 9 -37 9 0 6 -27 -4 -36 -3 -3 1 -13 9 -21 8 -8 12 -19 9 -24 -4 -5 -2
-9 3 -9 5 0 8 -11 7 -25 -2 -14 1 -25 5 -25 5 0 7 -9 5 -20 -2 -11 1 -20 7
-20 5 0 8 -7 4 -15 -3 -8 -1 -15 5 -15 6 0 7 -4 4 -10 -3 -5 -1 -10 6 -10 7 0
10 -3 7 -6 -8 -8 22 -94 33 -94 4 0 6 -6 3 -14 -3 -8 0 -17 5 -21 6 -3 9 -11
6 -16 -4 -5 0 -12 9 -15 8 -3 12 -12 9 -20 -3 -8 0 -14 7 -14 6 0 8 -5 5 -10
-3 -6 1 -13 9 -16 9 -3 13 -10 10 -15 -3 -5 0 -9 7 -9 7 0 9 -3 6 -6 -10 -10
13 -45 24 -39 5 4 9 3 8 -2 -3 -18 1 -34 8 -30 5 3 9 -6 9 -19 2 -25 27 -57
38 -47 3 4 6 -2 6 -13 0 -11 14 -34 30 -53 17 -18 28 -37 25 -42 -4 -5 -1 -9
5 -9 6 0 8 -5 5 -10 -4 -6 -3 -9 2 -8 4 2 27 -16 49 -39 23 -24 48 -43 55 -43
11 0 11 -2 1 -8 -9 -6 -5 -12 13 -22 14 -7 25 -20 25 -28 0 -9 3 -13 6 -9 7 7
70 -55 66 -66 -1 -5 2 -6 7 -3 5 3 11 -1 15 -9 3 -8 12 -15 21 -15 8 0 15 -4
15 -10 0 -5 7 -10 15 -10 8 0 19 -9 25 -21 7 -12 18 -18 26 -15 8 3 14 -1 14
-9 0 -14 12 -19 33 -16 4 0 7 -3 7 -9 0 -5 5 -10 10 -10 6 0 19 -9 30 -20 12
-12 25 -18 30 -15 6 4 13 -1 16 -9 3 -9 15 -16 25 -16 11 0 22 -6 25 -14 3 -8
12 -12 20 -9 7 3 16 -2 20 -10 3 -9 12 -13 21 -10 11 4 14 2 9 -5 -5 -8 1 -12
18 -12 14 0 26 -4 26 -10 0 -5 14 -10 31 -10 16 0 28 -4 25 -9 -3 -5 1 -11 9
-15 8 -3 15 0 15 6 0 6 8 4 18 -5 10 -10 29 -17 41 -17 12 0 20 -4 17 -8 -4
-7 14 -11 67 -13 9 0 17 -5 17 -10 0 -6 5 -7 10 -4 6 3 10 1 10 -6 0 -9 3 -10
11 -2 11 11 59 5 59 -8 0 -5 8 -9 18 -9 10 0 22 -4 28 -9 5 -5 43 -22 84 -37
67 -25 88 -28 200 -29 138 0 184 11 303 70 42 20 68 28 71 21 3 -8 5 -8 5 1 1
6 9 9 20 6 10 -3 22 0 25 6 4 6 20 11 36 11 16 0 32 5 35 10 3 6 17 10 31 10
14 0 23 4 20 9 -4 5 5 8 18 7 14 -2 27 3 30 10 3 8 16 14 28 14 13 0 32 7 42
15 10 8 23 12 27 9 5 -3 9 0 9 6 0 6 4 9 9 6 5 -3 14 1 21 10 7 8 19 13 27 10
7 -3 13 -1 13 4 0 5 16 17 36 26 20 9 38 23 41 31 3 7 9 10 14 7 14 -8 40 16
32 29 -3 5 -1 7 4 4 6 -4 22 3 37 14 14 11 26 17 26 13 0 -4 8 3 19 14 10 12
26 22 35 22 10 0 15 3 13 8 -2 4 8 18 21 32 14 14 22 19 18 13 -5 -9 -2 -11 8
-7 9 3 13 10 10 15 -3 5 -2 9 3 9 15 0 73 57 65 64 -4 4 -2 6 5 4 14 -4 74 62
67 73 -3 5 3 6 13 2 10 -3 15 -3 11 2 -4 4 8 23 28 41 19 19 32 38 29 44 -3 5
1 10 9 10 10 0 13 6 9 17 -4 11 -3 14 5 9 7 -4 12 -3 12 3 0 5 11 22 25 37 14
15 23 29 20 32 -2 3 5 13 16 23 12 10 18 22 15 28 -4 5 3 15 14 21 11 6 18 15
15 21 -4 5 -1 9 5 9 7 0 10 6 8 12 -3 7 1 19 9 26 7 8 11 17 8 22 -3 4 2 11
11 14 8 3 12 10 9 16 -3 5 -1 10 4 10 6 0 11 9 11 19 0 11 5 23 10 26 6 4 8
10 5 15 -3 4 2 11 11 14 8 3 12 10 9 16 -3 5 -2 10 2 10 5 0 10 9 11 20 1 11
3 29 4 40 1 11 5 20 9 20 4 0 10 7 13 16 3 8 2 12 -4 9 -15 -9 -12 2 6 19 12
12 12 16 2 16 -10 0 -10 2 1 9 7 5 15 25 17 46 2 20 8 43 14 50 6 7 11 33 12
58 1 25 5 44 8 42 3 -2 5 16 5 41 -1 24 3 44 9 44 5 0 6 3 3 7 -4 3 -2 12 4
20 6 7 7 13 2 13 -5 0 -10 7 -10 15 0 8 3 15 7 15 3 0 6 9 6 20 0 11 -4 20 -9
20 -5 0 -4 6 2 14 8 10 9 16 1 21 -7 4 -7 12 0 25 7 13 7 21 0 25 -8 5 -7 11
1 21 9 11 9 14 0 14 -8 0 -9 5 -1 19 7 14 7 22 0 26 -8 5 -7 11 1 21 8 10 8
14 0 14 -7 0 -8 8 -1 25 7 18 6 25 -2 25 -6 0 -9 3 -5 6 3 3 -1 24 -8 45 -10
27 -11 37 -3 33 8 -5 9 -1 4 12 -4 10 -9 26 -11 34 -2 8 -4 17 -5 20 -1 3 -2
13 -1 23 1 9 -1 17 -6 17 -4 0 -9 14 -10 31 -1 17 -8 37 -14 45 -9 11 -8 14 1
14 10 0 10 3 0 15 -7 8 -9 15 -5 15 4 0 2 6 -4 13 -6 8 -8 17 -4 20 3 4 1 7
-6 7 -7 0 -10 4 -6 9 3 5 -1 15 -8 23 -7 7 -12 23 -11 36 1 12 -3 25 -8 28 -4
3 -6 10 -3 15 4 5 1 9 -4 9 -6 0 -11 6 -11 13 0 18 -24 67 -32 67 -5 0 -8 7
-8 15 0 8 -4 15 -8 15 -4 0 -9 10 -9 22 -1 13 -7 24 -13 26 -5 2 -10 10 -10
18 0 8 -5 14 -11 14 -5 0 -7 5 -4 10 3 6 1 10 -4 10 -6 0 -11 5 -11 11 0 7 -8
18 -17 26 -10 8 -13 12 -7 9 6 -3 11 1 11 10 0 10 -7 12 -20 8 -13 -4 -17 -2
-12 5 4 7 1 18 -5 26 -7 8 -9 15 -4 16 5 0 -1 4 -13 9 -13 5 -23 16 -23 25 0
8 -4 15 -10 15 -5 0 -10 7 -10 15 0 8 -4 15 -10 15 -5 0 -10 4 -10 10 0 5 -13
23 -30 38 -16 16 -30 32 -30 35 0 11 -59 67 -70 67 -6 0 -8 5 -5 10 3 6 0 10
-7 10 -7 0 -24 14 -37 30 -13 17 -33 30 -45 30 -17 0 -18 2 -6 10 10 6 11 10
3 10 -12 0 -37 17 -68 48 -8 6 -18 12 -24 12 -6 0 -11 5 -11 10 0 6 -7 10 -15
10 -8 0 -15 7 -15 16 0 8 -4 13 -10 9 -5 -3 -18 3 -30 15 -11 11 -26 20 -33
20 -7 0 -23 9 -35 20 -12 11 -25 20 -30 20 -14 0 -62 25 -62 33 0 4 -9 7 -20
7 -11 0 -20 5 -20 10 0 6 -8 10 -19 10 -10 0 -24 7 -31 15 -15 18 -34 20 -24
3 4 -7 -2 -5 -13 5 -11 9 -27 17 -36 17 -9 0 -19 5 -22 10 -3 6 -17 10 -29 10
-13 0 -39 6 -57 14 -19 7 -42 12 -51 11 -10 -2 -21 2 -25 7 -4 7 -1 8 7 3 9
-5 11 -4 6 3 -4 8 -15 8 -31 2 -16 -6 -27 -6 -31 1 -4 8 -9 7 -15 -2 -7 -11
-9 -11 -9 -1 0 7 -4 10 -10 7 -5 -3 -10 -2 -10 3 0 14 -90 23 -297 28 -121 3
-183 1 -188 -6z m319 -3346 c3 -9 -2 -18 -12 -22 -20 -8 -229 -9 -237 0 -3 3
-3 13 1 22 6 15 20 17 110 14 57 -2 104 0 104 4 0 12 28 -3 34 -18z"/>
</g>
</svg>
