<?xml version="1.0" standalone="no"?>
<!DOCTYPE svg PUBLIC "-//W3C//DTD SVG 20010904//EN"
 "http://www.w3.org/TR/2001/REC-SVG-20010904/DTD/svg10.dtd">
<svg version="1.0" xmlns="http://www.w3.org/2000/svg"
 width="216.000000pt" height="87.000000pt" viewBox="0 0 216.000000 87.000000"
 preserveAspectRatio="xMidYMid meet">

<g transform="translate(0.000000,87.000000) scale(0.100000,-0.100000)"
fill="#000000" stroke="none">
<path d="M762 775 c-18 -36 -32 -68 -32 -70 0 -3 34 -5 75 -5 l75 0 35 70 35
70 -78 0 -78 0 -32 -65z"/>
<path d="M650 540 c-44 -87 -56 -120 -45 -120 8 0 15 -2 15 -5 0 -3 -27 -59
-60 -125 l-60 -120 78 0 77 0 58 116 c45 90 55 119 45 125 -10 6 0 35 45 124
31 63 57 117 57 120 0 3 -34 5 -75 5 l-75 0 -60 -120z"/>
<path d="M860 540 c-44 -87 -56 -120 -45 -120 8 0 15 -2 15 -5 0 -3 -43 -91
-95 -195 l-95 -190 78 0 78 0 34 70 34 70 121 0 122 0 57 117 c43 88 54 118
44 124 -10 6 1 36 45 124 31 63 57 117 57 120 0 3 -88 5 -195 5 l-195 0 -60
-120z m230 -25 c0 -3 -9 -24 -21 -47 -16 -32 -18 -42 -8 -49 10 -6 8 -19 -11
-58 -23 -50 -24 -51 -67 -51 -24 0 -43 2 -43 5 0 3 9 24 21 47 16 32 18 42 8
49 -10 6 -8 19 11 58 23 50 24 51 67 51 24 0 43 -2 43 -5z"/>
</g>
</svg>
