<?xml version="1.0" standalone="no"?>
<!DOCTYPE svg PUBLIC "-//W3C//DTD SVG 20010904//EN"
 "http://www.w3.org/TR/2001/REC-SVG-20010904/DTD/svg10.dtd">
<svg version="1.0" xmlns="http://www.w3.org/2000/svg"
 width="245.000000pt" height="92.000000pt" viewBox="0 0 245.000000 92.000000"
 preserveAspectRatio="xMidYMid meet">

<g transform="translate(0.000000,92.000000) scale(0.100000,-0.100000)"
fill="#000000" stroke="none">
<path d="M0 460 l0 -460 275 0 275 0 0 100 0 100 -190 0 c-104 0 -190 2 -190
4 0 2 25 56 55 120 39 84 50 116 40 116 -8 0 -15 2 -15 5 0 3 43 91 95 195
l95 190 85 0 85 0 -35 -70 c-27 -55 -32 -70 -20 -70 9 0 18 7 21 15 19 49 151
74 204 39 50 -33 50 -35 -17 -171 -48 -98 -59 -129 -48 -131 8 -2 15 -5 15 -8
0 -2 -25 -54 -55 -114 -30 -60 -55 -112 -55 -115 0 -3 36 -5 80 -5 l80 0 60
120 c33 66 60 122 60 125 0 3 -7 5 -15 5 -11 0 -7 15 17 65 18 36 36 65 40 65
20 0 17 -31 -6 -84 -20 -44 -22 -56 -10 -56 7 0 14 -2 14 -5 0 -3 -40 -86 -90
-185 -49 -99 -90 -182 -90 -185 0 -3 20 -5 45 -5 43 0 45 -1 45 -30 l0 -30
117 0 117 0 -62 63 -63 64 17 36 18 37 122 0 122 0 12 30 c10 24 15 28 27 19
7 -7 15 -10 17 -8 3 2 25 48 50 102 32 70 41 97 30 97 -8 0 -14 2 -14 5 0 3
43 91 95 195 l95 190 85 0 86 0 -16 -30 c-20 -39 -20 -40 16 -40 35 0 94 -32
103 -55 4 -12 25 -15 91 -15 l85 0 -60 -120 c-42 -84 -56 -120 -46 -120 11 0
16 -14 18 -46 l3 -45 40 37 c32 31 37 39 23 42 -10 2 -18 5 -18 7 0 3 25 59
56 125 l57 120 83 0 c46 0 84 -2 84 -5 0 -3 -25 -55 -55 -115 -30 -60 -55
-112 -55 -115 0 -3 7 -5 15 -5 27 0 -10 -57 -103 -157 l-85 -93 -54 0 -53 0 0
-100 0 -100 300 0 300 0 0 460 0 460 -1225 0 -1225 0 0 -460z m1144 -103 c-4
-12 -18 -17 -45 -17 l-39 0 21 41 21 42 24 -25 c16 -15 22 -30 18 -41z"/>
<path d="M445 500 c-20 -40 -22 -50 -10 -50 20 0 19 -2 -10 -60 l-25 -50 38 0
c35 0 40 3 61 47 17 36 19 48 9 54 -10 6 -8 18 10 54 12 25 22 48 22 50 0 3
-16 5 -35 5 -32 0 -37 -4 -60 -50z"/>
<path d="M1536 465 c-3 -8 -1 -15 4 -15 6 0 10 7 10 15 0 8 -2 15 -4 15 -2 0
-6 -7 -10 -15z"/>
<path d="M1527 375 c-16 -34 -16 -35 3 -35 16 0 20 7 20 35 0 19 -1 35 -3 35
-2 0 -11 -16 -20 -35z"/>
<path d="M1425 100 c55 -55 105 -100 112 -100 10 0 13 26 13 100 l0 100 -112
0 -113 0 100 -100z"/>
</g>
</svg>
